{
  "accessors": [
    {
      "bufferView": 2,
      "componentType": 5126,
      "count": 8,
      "max": [
        1.6494604349136353,
        0.49203139543533325,
        0.057376690208911896
      ],
      "min": [
        -1.5965512990951538,
        -1.1466076374053955,
        0.043516989797353745
      ],
      "type": "VEC3"
    },
    {
      "bufferView": 2,
      "byteOffset": 96,
      "componentType": 5126,
      "count": 8,
      "max": [
        0.060183413326740265,
        0.9999964237213135,
        0.9999992847442627
      ],
      "min": [
        -0.0006409059860743582,
        -0.0011902573751285672,
        0.00259411265142262
      ],
      "type": "VEC3"
    },
    {
      "bufferView": 1,
      "componentType": 5126,
      "count": 8,
      "max": [
        0.465912789106369,
        0.4001881778240204
      ],
      "min": [
        0.45678937435150146,
        0.3528256118297577
      ],
      "type": "VEC2"
    },
    {
      "bufferView": 0,
      "componentType": 5125,
      "count": 12,
      "type": "SCALAR"
    },
    {
      "bufferView": 2,
      "byteOffset": 192,
      "componentType": 5126,
      "count": 42,
      "max": [
        1.7000749111175537,
        -1.1466076374053955,
        0.06397655606269836
      ],
      "min": [
        -1.64716637134552,
        -1.452248215675354,
        0.055420421063899994
      ],
      "type": "VEC3"
    },
    {
      "bufferView": 2,
      "byteOffset": 696,
      "componentType": 5126,
      "count": 42,
      "max": [
        0.0,
        0.9999988079071045,
        0.9999992847442627
      ],
      "min": [
        0.0,
        -0.0011902573751285672,
        0.0015564896166324615
      ],
      "type": "VEC3"
    },
    {
      "bufferView": 1,
      "byteOffset": 64,
      "componentType": 5126,
      "count": 42,
      "max": [
        0.4568227529525757,
        0.40092673897743225
      ],
      "min": [
        0.4551292657852173,
        0.3520870804786682
      ],
      "type": "VEC2"
    },
    {
      "bufferView": 0,
      "byteOffset": 48,
      "componentType": 5125,
      "count": 114,
      "type": "SCALAR"
    },
    {
      "bufferView": 2,
      "byteOffset": 1200,
      "componentType": 5126,
      "count": 36,
      "max": [
        1.7000749111175537,
        0.4919953942298889,
        0.057376690208911896
      ],
      "min": [
        -1.6471664905548096,
        -1.1466076374053955,
        0.055420421063899994
      ],
      "type": "VEC3"
    },
    {
      "bufferView": 2,
      "byteOffset": 1632,
      "componentType": 5126,
      "count": 36,
      "max": [
        0.0,
        -0.0011902573751285672,
        0.9999992847442627
      ],
      "min": [
        0.0,
        -0.0011902573751285672,
        0.9999992847442627
      ],
      "type": "VEC3"
    },
    {
      "bufferView": 1,
      "byteOffset": 400,
      "componentType": 5126,
      "count": 36,
      "max": [
        0.4659128785133362,
        0.40092673897743225
      ],
      "min": [
        0.45678776502609253,
        0.3520870804786682
      ],
      "type": "VEC2"
    },
    {
      "bufferView": 0,
      "byteOffset": 504,
      "componentType": 5125,
      "count": 102,
      "type": "SCALAR"
    },
    {
      "bufferView": 2,
      "byteOffset": 2064,
      "componentType": 5126,
      "count": 443,
      "max": [
        1.7000758647918701,
        0.49203139543533325,
        0.41504499316215515
      ],
      "min": [
        -1.6471664905548096,
        -1.7688456773757935,
        -0.4404285252094269
      ],
      "type": "VEC3"
    },
    {
      "bufferView": 2,
      "byteOffset": 7380,
      "componentType": 5126,
      "count": 443,
      "max": [
        1.0,
        0.9999964237213135,
        0.9999822378158569
      ],
      "min": [
        -1.0,
        -1.0,
        -0.9997735023498535
      ],
      "type": "VEC3"
    },
    {
      "bufferView": 1,
      "byteOffset": 688,
      "componentType": 5126,
      "count": 443,
      "max": [
        0.4659191071987152,
        0.40096691250801086
      ],
      "min": [
        0.43986862897872925,
        0.3520525395870209
      ],
      "type": "VEC2"
    },
    {
      "bufferView": 0,
      "byteOffset": 912,
      "componentType": 5125,
      "count": 1374,
      "type": "SCALAR"
    }
  ],
  "asset": {
    "extras": {
      "author": "fatihmcnn (https://sketchfab.com/fatihmcnn)",
      "license": "CC-BY-4.0 (http://creativecommons.org/licenses/by/4.0/)",
      "source": "https://sketchfab.com/3d-models/basic-computer-monitor-tv-lowpoly-967ebecf66ef4d69b90655b173fb444f",
      "title": "Basic Computer Monitor & TV - Lowpoly"
    },
    "generator": "Sketchfab-12.67.0",
    "version": "2.0"
  },
  "bufferViews": [
    {
      "buffer": 0,
      "byteLength": 6408,
      "name": "floatBufferViews",
      "target": 34963
    },
    {
      "buffer": 0,
      "byteLength": 4232,
      "byteOffset": 6408,
      "byteStride": 8,
      "name": "floatBufferViews",
      "target": 34962
    },
    {
      "buffer": 0,
      "byteLength": 12696,
      "byteOffset": 10640,
      "byteStride": 12,
      "name": "floatBufferViews",
      "target": 34962
    }
  ],
  "buffers": [
    {
      "byteLength": 23336,
      "uri": "scene.bin"
    }
  ],
  "materials": [
    {
      "doubleSided": true,
      "name": "GLASS",
      "pbrMetallicRoughness": {
        "baseColorFactor": [
          0.024031858959787163,
          0.024031858959787163,
          0.024031858959787163,
          1.0
        ],
        "roughnessFactor": 0.1105846694513859
      }
    },
    {
      "doubleSided": true,
      "name": "BOTTOM_LINE",
      "pbrMetallicRoughness": {
        "metallicFactor": 0.6158075381986879,
        "roughnessFactor": 0.11115316564215749
      }
    },
    {
      "doubleSided": true,
      "name": "FRAME",
      "pbrMetallicRoughness": {
        "baseColorFactor": [
          0.022903998576993965,
          0.022903998576993965,
          0.022903998576993965,
          1.0
        ],
        "roughnessFactor": 0.0984243231247226
      }
    },
    {
      "doubleSided": true,
      "name": "BASE_COLOR",
      "pbrMetallicRoughness": {
        "metallicFactor": 0.5732463260553661,
        "roughnessFactor": 0.20843593625546455
      }
    }
  ],
  "meshes": [
    {
      "name": "Object_0",
      "primitives": [
        {
          "attributes": {
            "NORMAL": 1,
            "POSITION": 0,
            "TEXCOORD_0": 2
          },
          "indices": 3,
          "material": 0,
          "mode": 4
        }
      ]
    },
    {
      "name": "Object_1",
      "primitives": [
        {
          "attributes": {
            "NORMAL": 5,
            "POSITION": 4,
            "TEXCOORD_0": 6
          },
          "indices": 7,
          "material": 1,
          "mode": 4
        }
      ]
    },
    {
      "name": "Object_2",
      "primitives": [
        {
          "attributes": {
            "NORMAL": 9,
            "POSITION": 8,
            "TEXCOORD_0": 10
          },
          "indices": 11,
          "material": 2,
          "mode": 4
        }
      ]
    },
    {
      "name": "Object_3",
      "primitives": [
        {
          "attributes": {
            "NORMAL": 13,
            "POSITION": 12,
            "TEXCOORD_0": 14
          },
          "indices": 15,
          "material": 3,
          "mode": 4
        }
      ]
    }
  ],
  "nodes": [
    {
      "children": [
        1
      ],
      "matrix": [
        1.0,
        0.0,
        0.0,
        0.0,
        0.0,
        2.220446049250313e-16,
        -1.0,
        0.0,
        0.0,
        1.0,
        2.220446049250313e-16,
        0.0,
        0.0,
        0.0,
        0.0,
        1.0
      ],
      "name": "Sketchfab_model"
    },
    {
      "children": [
        2
      ],
      "name": "root"
    },
    {
      "children": [
        3
      ],
      "matrix": [
        1.0,
        0.0,
        0.0,
        0.0,
        0.0,
        2.220446049250313e-16,
        1.0,
        0.0,
        0.0,
        -1.0,
        2.220446049250313e-16,
        0.0,
        0.0,
        0.0,
        0.0,
        1.0
      ],
      "name": "GLTF_SceneRootNode"
    },
    {
      "children": [
        4,
        5,
        6,
        7
      ],
      "matrix": [
        1.0,
        0.0,
        0.0,
        0.0,
        0.0,
        1.0,
        0.0,
        0.0,
        0.0,
        0.0,
        1.0,
        0.0,
        0.0,
        1.775307059288025,
        0.0,
        1.0
      ],
      "name": "Cube_0"
    },
    {
      "mesh": 0,
      "name": "Object_4"
    },
    {
      "mesh": 1,
      "name": "Object_5"
    },
    {
      "mesh": 2,
      "name": "Object_6"
    },
    {
      "mesh": 3,
      "name": "Object_7"
    }
  ],
  "scene": 0,
  "scenes": [
    {
      "name": "Sketchfab_Scene",
      "nodes": [
        0
      ]
    }
  ]
}
